<svg id="Layer_1" xmlns="http://www.w3.org/2000/svg" viewBox="0 0 512.001 512.001">
  <path d="M212.623 108.789c3.203 9.791 9.923 18 18.662 23.134v4.464l-33.068 12.949c-3.049 1.103-28.928 11.43-28.928 44.332v28.799c0 4.464 3.618 8.09 8.084 8.09h20.539a8.083 8.083 0 0 0 8.084-8.084 8.084 8.084 0 0 0-8.084-8.084h-12.456v-20.722c0-22.367 17.487-28.854 18.166-29.096.125-.042.25-.087.372-.136l30.283-11.86 16.085 15.665a8.087 8.087 0 0 0 5.64 2.294l.128-.001a8.086 8.086 0 0 0 5.693-2.474l15.188-15.765 30.215 12.116c.142.057.288.11.432.16.182.061 18.167 6.369 18.167 29.095v20.722H223.598a8.083 8.083 0 0 0-8.084 8.084 8.084 8.084 0 0 0 8.084 8.084h110.311c4.464 0 8.084-3.675 8.084-8.14v-28.748c0-32.775-25.68-43.151-28.894-44.319l-32.208-12.915v-4.511c8.743-5.137 15.465-13.35 18.666-23.148 11.703-.94 20.943-10.743 20.943-22.682 0-7.1-3.267-13.447-8.373-17.627v-14.26C312.127 24.316 287.811 0 257.923 0h-3.844c-29.888 0-54.204 24.316-54.204 54.205v14.197c-5.153 4.179-8.458 10.553-8.458 17.691 0 12.028 9.379 21.884 21.206 22.696zm89.002-27.445c.293.092.594.163.9.221a6.582 6.582 0 0 1 1.808 4.528 6.592 6.592 0 0 1-2.708 5.321v-10.07zm-36.903 60.404l-8.904 9.244-8.366-8.148v-5.475a42.04 42.04 0 0 0 4.97.305h7.33c1.684 0 3.339-.111 4.97-.305v4.379zm20.735-45.947c0 14.174-11.531 25.703-25.703 25.703h-7.33c-14.174 0-25.706-11.531-25.706-25.703V74.6c10.469-1.137 28.961-4.817 43.238-16.714 3.202 5.475 8.143 11.386 15.502 14.848v23.067zm-69.414-41.596c0-20.974 17.063-38.037 38.036-38.037h3.844c20.973 0 38.036 17.063 38.036 38.037v5.106c-.137-.043-.279-.073-.419-.11-.069-.017-.136-.041-.205-.057-11.173-2.542-14.831-17.468-14.858-17.58a8.084 8.084 0 0 0-14.434-2.953c-14.542 20.104-46.978 20.331-47.383 20.331h-.026c-.278 0-.554.014-.825.042-.072.008-.143.024-.214.032a8.64 8.64 0 0 0-.587.089c-.101.022-.199.053-.3.078-.157.039-.318.073-.472.121-.066.021-.127.049-.192.07v-5.169zm-6.824 27.551a7.957 7.957 0 0 0 1.331-.324v10.169a6.605 6.605 0 0 1-2.965-5.508c0-1.66.618-3.175 1.634-4.337zM330.387 28.05c52.257 17.127 97.456 52.159 127.27 98.643a8.08 8.08 0 0 0 11.169 2.44 8.085 8.085 0 0 0 2.441-11.169c-31.818-49.608-80.061-86.996-135.844-105.279a8.085 8.085 0 0 0-5.036 15.365zM42.453 129.134a8.078 8.078 0 0 0 11.169-2.44c30.159-47.022 75.946-82.245 128.923-99.18a8.082 8.082 0 0 0 5.238-10.162c-1.36-4.253-5.912-6.599-10.161-5.238C121.069 30.19 72.197 67.783 40.011 117.964a8.088 8.088 0 0 0 2.442 11.17zm113.142 344.875c-41.808-19.218-77.069-49.899-101.972-88.725a8.085 8.085 0 0 0-13.61 8.728c26.575 41.434 64.208 74.175 108.829 94.688a8.058 8.058 0 0 0 3.372.742 8.087 8.087 0 0 0 3.381-15.433zm313.231-91.166a8.085 8.085 0 0 0-11.169 2.441c-24.545 38.271-59.235 68.684-100.317 87.951a8.084 8.084 0 0 0-3.886 10.752 8.083 8.083 0 0 0 10.752 3.886c43.847-20.563 80.868-53.018 107.063-93.86a8.087 8.087 0 0 0-2.443-11.17zm-296.11-19.715V334.38c0-32.774-25.676-43.148-28.894-44.319l-32.208-12.916v-4.511c8.743-5.137 15.465-13.351 18.666-23.149 11.702-.94 20.943-10.743 20.943-22.682 0-7.099-3.267-13.446-8.374-17.627v-14.26c0-29.889-24.316-54.206-54.204-54.206h-3.844c-29.889 0-54.204 24.317-54.204 54.206v14.197c-5.153 4.18-8.458 10.553-8.458 17.69 0 12.028 9.379 21.884 21.204 22.696 3.204 9.791 9.923 18.001 18.663 23.135v4.463l-33.068 12.951C25.882 291.151.01 301.48.01 334.38v28.797c0 4.466 3.618 8.091 8.084 8.091h20.539a8.082 8.082 0 0 0 8.084-8.084 8.082 8.082 0 0 0-8.084-8.084H16.178v-20.721c0-22.369 17.487-28.854 18.165-29.095.125-.042.25-.087.373-.136l30.282-11.859 16.086 15.665a8.082 8.082 0 0 0 5.639 2.293l.128-.001a8.081 8.081 0 0 0 5.693-2.474l15.188-15.765 30.214 12.116c.143.058.222.088.369.137.744.265 18.232 6.751 18.232 29.119V355.1H54.321a8.082 8.082 0 0 0-8.084 8.084 8.082 8.082 0 0 0 8.084 8.084h110.311c4.465 0 8.084-3.676 8.084-8.14zm-40.368-141.074c.292.092.594.163.899.221a6.578 6.578 0 0 1 1.809 4.528 6.592 6.592 0 0 1-2.708 5.321v-10.07zm-91.075 10.257a6.605 6.605 0 0 1-2.965-5.508c0-1.66.62-3.175 1.635-4.337a8.044 8.044 0 0 0 1.33-.324v10.169zm8.109-32.658h-.026c-.278 0-.554.014-.825.042-.072.008-.143.024-.214.032a8.737 8.737 0 0 0-.587.089c-.101.022-.199.053-.3.078-.157.039-.318.073-.472.121-.066.02-.127.049-.192.07v-5.168c0-20.976 17.063-38.039 38.036-38.039h3.844c20.973 0 38.036 17.064 38.036 38.038v5.105c-.137-.043-.279-.073-.419-.11-.069-.017-.136-.042-.205-.057-11.173-2.542-14.831-17.466-14.858-17.579a8.081 8.081 0 0 0-6.264-6.134 8.075 8.075 0 0 0-8.169 3.182c-14.545 20.102-46.98 20.33-47.385 20.33zm46.063 82.805l-8.904 9.244-8.366-8.148v-5.475a42.04 42.04 0 0 0 4.97.305h7.33c1.684 0 3.339-.111 4.97-.305v4.379zm-4.969-20.243h-7.33c-14.174 0-25.706-11.531-25.706-25.704V215.31h.001c10.469-1.137 28.961-4.816 43.238-16.714 3.202 5.477 8.143 11.385 15.502 14.848v23.067c-.001 14.174-11.532 25.704-25.705 25.704zm392.62 27.845l-32.208-12.916v-4.511c8.743-5.137 15.465-13.351 18.666-23.149 11.702-.94 20.943-10.743 20.943-22.682 0-7.099-3.267-13.446-8.374-17.627v-14.26c0-29.889-24.316-54.206-54.204-54.206h-3.845c-29.888 0-54.204 24.317-54.204 54.206v14.197c-5.153 4.18-8.458 10.553-8.458 17.69 0 12.028 9.379 21.884 21.205 22.696 3.204 9.791 9.923 18.001 18.663 23.135v4.463l-33.067 12.951c-3.056 1.103-28.928 11.432-28.928 44.332v28.797c0 4.466 3.618 8.091 8.084 8.091h20.539a8.082 8.082 0 0 0 8.084-8.084 8.082 8.082 0 0 0-8.084-8.084h-12.456v-20.721c0-22.369 17.487-28.854 18.165-29.095.125-.042.249-.087.373-.136l30.282-11.859 16.086 15.665a8.082 8.082 0 0 0 5.64 2.293l.128-.001a8.08 8.08 0 0 0 5.693-2.474l15.188-15.765 30.214 12.116c.143.058.222.088.369.137.744.265 18.232 6.751 18.232 29.119v20.721H393.595a8.082 8.082 0 0 0-8.084 8.084 8.082 8.082 0 0 0 8.084 8.084h110.311c4.466 0 8.084-3.675 8.084-8.14v-28.748c-.001-32.774-25.677-43.148-28.894-44.319zm-11.474-68.006c.292.092.594.163.899.221a6.578 6.578 0 0 1 1.809 4.528 6.592 6.592 0 0 1-2.708 5.321v-10.07zm-91.075 10.257a6.605 6.605 0 0 1-2.965-5.508c0-1.66.62-3.175 1.635-4.337a8.044 8.044 0 0 0 1.33-.324v10.169zm8.109-32.658h-.026c-.278 0-.554.014-.825.042-.072.008-.143.024-.214.032a8.64 8.64 0 0 0-.587.089c-.101.022-.199.053-.3.078-.157.039-.318.073-.473.121-.065.02-.127.049-.192.07v-5.168c0-20.976 17.063-38.039 38.036-38.039h3.845c20.973 0 38.036 17.064 38.036 38.038v5.105c-.137-.043-.279-.073-.419-.11-.069-.017-.136-.042-.205-.057-11.173-2.542-14.831-17.466-14.858-17.579a8.081 8.081 0 0 0-6.264-6.134 8.076 8.076 0 0 0-8.169 3.182c-14.544 20.102-46.979 20.33-47.385 20.33zm46.063 82.805l-8.904 9.244-8.366-8.148v-5.475a42.04 42.04 0 0 0 4.97.305h7.33a42.04 42.04 0 0 0 4.97-.305v4.379zm-4.97-20.242h-7.33c-14.174 0-25.706-11.531-25.706-25.705V215.31h.001c10.472-1.14 28.974-4.827 43.238-16.714 3.202 5.477 8.143 11.385 15.502 14.848v23.067c0 14.175-11.531 25.705-25.705 25.705zm-116.65 168.578l-32.208-12.916v-4.511c8.743-5.137 15.465-13.351 18.666-23.149 11.703-.94 20.943-10.744 20.943-22.683 0-7.099-3.267-13.446-8.373-17.627v-14.26c0-29.889-24.316-54.206-54.204-54.206h-3.844c-29.888 0-54.204 24.316-54.204 54.206v14.197c-5.153 4.18-8.458 10.553-8.458 17.69 0 12.028 9.379 21.884 21.204 22.696 3.204 9.792 9.923 18.001 18.663 23.136v4.463l-33.069 12.95c-3.056 1.103-28.928 11.433-28.928 44.332v28.797c0 4.466 3.618 8.091 8.084 8.091h20.539c4.466 0 8.084-3.618 8.084-8.084s-3.618-8.084-8.084-8.084h-12.456v-20.721c0-22.369 17.487-28.854 18.166-29.095.125-.042.25-.087.373-.136l30.282-11.86 16.086 15.665a8.082 8.082 0 0 0 5.639 2.293l.128-.001a8.077 8.077 0 0 0 5.693-2.474l15.188-15.765 30.214 12.116c.143.058.222.088.369.137.744.265 18.232 6.751 18.232 29.119v20.721H223.597c-4.466 0-8.084 3.618-8.084 8.084s3.618 8.084 8.084 8.084h110.311c4.464 0 8.084-3.675 8.084-8.14v-28.748c0-32.772-25.676-43.147-28.893-44.317zm-11.474-68.008c.293.092.594.163.899.221a6.578 6.578 0 0 1 1.809 4.528 6.594 6.594 0 0 1-2.708 5.322v-10.071zm-91.075 10.258a6.607 6.607 0 0 1-2.965-5.509c0-1.66.62-3.174 1.634-4.336a8.031 8.031 0 0 0 1.331-.324v10.169zm8.108-32.661h-.026c-.278 0-.554.014-.825.042-.085.009-.167.026-.252.038-.183.024-.369.047-.549.084-.127.025-.249.064-.375.096-.133.033-.268.063-.398.102-.066.019-.127.048-.193.069v-5.168c.001-20.973 17.065-38.036 38.037-38.036h3.844c20.973 0 38.036 17.063 38.036 38.038v5.105c-.13-.041-.266-.069-.4-.105-.075-.021-.148-.045-.224-.064-11.173-2.541-14.831-17.465-14.858-17.579a8.081 8.081 0 0 0-6.264-6.134 8.077 8.077 0 0 0-8.169 3.181c-14.543 20.104-46.978 20.331-47.384 20.331zm46.064 82.807l-8.904 9.245-8.366-8.148v-5.475a42.04 42.04 0 0 0 4.97.305h7.33c1.684 0 3.339-.112 4.97-.305v4.378zm-4.969-20.242h-7.33c-14.174 0-25.706-11.531-25.706-25.704v-21.2h.001c10.469-1.138 28.961-4.817 43.238-16.715 3.202 5.475 8.143 11.386 15.502 14.848v23.067c-.001 14.172-11.532 25.704-25.705 25.704z"/>
</svg>
